<?xml version="1.0" standalone="no"?>
<!DOCTYPE svg PUBLIC "-//W3C//DTD SVG 20010904//EN"
 "http://www.w3.org/TR/2001/REC-SVG-20010904/DTD/svg10.dtd">
<svg version="1.0" xmlns="http://www.w3.org/2000/svg"
 width="512.000000pt" height="512.000000pt" viewBox="0 0 512.000000 512.000000"
 preserveAspectRatio="xMidYMid meet">
<metadata>
Created by potrace 1.14, written by Peter Selinger 2001-2017
</metadata>
<g transform="translate(0.000000,512.000000) scale(0.100000,-0.100000)"
fill="#000000" stroke="none">
<path d="M870 5113 c-413 -68 -714 -330 -837 -728 l-28 -90 0 -1725 0 -1725
27 -98 c102 -363 365 -622 732 -720 l81 -22 1715 0 1715 0 82 22 c403 108 696
430 753 828 8 58 10 542 8 1755 l-3 1675 -28 93 c-106 361 -359 611 -725 715
l-77 22 -1695 1 c-932 1 -1706 0 -1720 -3z m1821 -1063 c306 -30 567 -145 805
-351 46 -40 84 -76 84 -81 0 -4 -457 -8 -1015 -8 -558 0 -1015 4 -1015 8 0 13
117 114 203 175 150 108 300 177 477 221 168 42 300 52 461 36z m1223 -72
c-14 -249 -43 -417 -104 -600 -161 -484 -521 -848 -1064 -1077 -194 -82 -191
-81 -206 -36 -7 20 -10 38 -8 40 1 2 46 20 98 40 719 280 1112 762 1190 1460
5 50 10 127 10 173 l0 82 44 0 44 0 -4 -82z m223 -55 c-12 -266 -67 -526 -158
-748 l-51 -125 25 -103 c14 -56 31 -134 36 -174 16 -105 13 -353 -4 -462 -16
-95 -56 -249 -77 -296 l-11 -25 -632 0 -631 0 -18 50 c-10 27 -16 54 -14 60 2
6 57 32 123 59 699 281 1119 739 1259 1372 30 139 55 349 56 472 l0 57 52 0
51 0 -6 -137z m-1721 -883 c8 -25 14 -50 14 -55 0 -6 -42 -28 -92 -50 -796
-336 -1216 -918 -1255 -1737 l-6 -138 -49 0 -48 0 0 104 c0 261 76 605 185
843 l33 72 -19 73 c-67 252 -66 555 1 810 11 42 24 88 30 102 l10 26 591 -2
592 -3 13 -45z m64 -199 c0 -5 3 -22 6 -38 6 -28 3 -30 -63 -58 -389 -163
-689 -399 -879 -693 -109 -169 -195 -400 -233 -632 -9 -53 -31 -302 -31 -347
0 -8 -15 -13 -40 -13 l-40 0 0 43 c0 80 21 272 40 379 115 614 468 1035 1110
1324 94 43 130 52 130 35z m1015 -1427 c-169 -155 -404 -273 -660 -331 -113
-25 -425 -25 -543 0 -245 54 -489 176 -657 331 l-60 55 990 0 990 0 -60 -55z"/>
</g>
</svg>
